<?xml version="1.0" encoding="UTF-8"?>
<svg id="Capa_1" data-name="Capa 1" xmlns="http://www.w3.org/2000/svg" viewBox="0 700 3000 1400">
  <defs>
    <style>
      .cls-1 {
        font-family: SenlotSerif-NorLig, 'Senlot Serif';
        font-size: 343.81px;
      }

      .cls-1, .cls-2, .cls-3 {
        fill: #283c5b;
      }

      .cls-2 {
        font-family: RalewayRoman-Medium, Raleway;
        font-size: 147.77px;
        font-variation-settings: 'wght' 500;
        font-weight: 500;
      }

      .cls-4 {
        letter-spacing: -.02em;
      }

      .cls-5 {
        letter-spacing: 0em;
      }

      .cls-6 {
        letter-spacing: 0em;
      }

      .cls-7 {
        letter-spacing: .06em;
      }

      .cls-8 {
        letter-spacing: .06em;
      }

      .cls-9 {
        letter-spacing: .07em;
      }

      .cls-10 {
        letter-spacing: .07em;
      }

      .cls-11 {
        letter-spacing: .06em;
      }

      .cls-12 {
        letter-spacing: .06em;
      }

      .cls-13 {
        letter-spacing: .06em;
      }

      .cls-14 {
        letter-spacing: .05em;
      }

      .cls-15 {
        letter-spacing: .04em;
      }

      .cls-16 {
        letter-spacing: .04em;
      }

      .cls-17 {
        letter-spacing: .03em;
      }
    </style>
  </defs>
  <g>
    <path class="cls-3" d="M763.4,1250.25c-19.35,43.78-61.79,70.01-108.91,73.44-11.84.86-23.21.69-34.79-1.52-30.26-5.77-50.97-24.12-65.49-50.7-35.88-65.65-49-137.87-42.98-212.41l28.37-2.39c37.73-1.8,75.41,1.91,111.87,11.91,26.12,7.17,50.84,17.87,74.09,31.52,17.5,10.27,31.31,24.84,39.69,43.45,15.04,33.4,12.85,73.44-1.85,106.69ZM588.58,1144.72c15.26-3.87,38.22-7.58,65.52-3.98,52.04,6.87,86.27,35.89,99.27,48.2.42.74.66.63.72-.11-1.9-20.4-10.84-37.09-24.79-51.57-21.48-22.29-52.94-36.59-82.46-45.41-35.88-10.5-74.82-15.02-112.18-12.26-4.87,51.07,3.04,110.95,26.61,156.8,14.7,28.6,36.76,53.46,68.29,63.86l-16.58-28.52c-20.59-40.18-29.97-81.58-24.38-127.02ZM715.98,1276.11c6.02-4.15,10.46-9.06,14.29-15,8.37-12.97,15.32-31.91,10.63-46.66-6.92-21.73-24.91-36.72-45.52-45.55-27.76-11.52-57.84-13.84-87.97-12.37.19,31.15,4.8,63.49,17.48,91.94,4.32,9.28,9.5,17.76,16.56,25.16,11.12,11.64,24.31,16.39,40.48,14.92,12.31-1.12,23.75-5.35,34.04-12.44Z"/>
    <path class="cls-3" d="M388.13,973.1c-41.99-2.54-82.72-12.91-120.84-29.91-36.13-16.44-75.88-42.89-92.63-79.83-8.52-18.78-10.23-39.8-3.69-59.56,18.09-54.72,62.72-82.34,73.55-87.82,15.4-7.8,39.15-19.85,68.65-14.51,35.6,6.45,58.1,34.33,66.15,44.31,6.77,8.39,10.55,15.14,16.57,25.89,3.41,6.09,18.6,33.69,29.33,70.82,15.37,53.19,15.14,103.66,13.98,128.91-16.95,2.36-33.67,2.76-51.08,1.7ZM417.07,897.38c.35-12.93-.98-24.92-3.25-37.37-6-29.9-16.65-58.5-32.18-84.71-4.41-7.44-9.1-14.24-14.85-20.58-15.01-16.56-34.77-25-57.18-25.36-26.81-.04-51.95,10.53-72.27,28.3,41.39,36.9,81.57,74.79,120.7,114.15l53.42,53.75c3.74-9.22,5.1-18.37,5.61-28.18ZM379.76,948.24l15.05-4.76-38.7-36.63-74.81-72.03-29.87-30.5-33.18-36.13c-21.57,17.3-31.76,44.88-26.44,72.26,2.97,15.31,10.37,28.8,20.8,40.39,22.03,24.47,49,43.68,79.33,56.66,27.22,11.65,58.75,17.35,87.83,10.74Z"/>
    <path class="cls-3" d="M714.8,976.48c-12.54,2.92-24.74,3.12-37.06.58-11.1-2.29-20.95-7.19-29.67-14.31-7.62-6.22-15.55-11.33-24.39-15.48-17.42-8.17-36.66-8.74-54.4-1.3-7.03,2.95-13.52,6.27-19.97,10.4l-19.07,12.21c-5.08,3.25-10.28,5.76-15.97,7.65-11.97,3.97-21.9-1.07-29.72-10.85l44.92-26.53c8.84-7.49,18.42-13.39,29.51-16.82,23.8-7.35,47.66-4.41,70.54,4.84l30.1,13.84c9.53,4.38,18.7,8.56,28.7,11.66l12.01,2.92c9.34,2.27,25.13-4.71,33.19-10.18l18.92-12.82,12.67-8.61c3.09-1.51,14.29-1.1,18,1.71-4.48,9.68-10.75,17.76-18.51,24.99-13.98,13.03-30.94,21.71-49.8,26.09Z"/>
    <path class="cls-3" d="M783.02,727.24c-15.88,28.91-48.44,47.4-81.08,49.45-19.17,1.2-37.1-3.98-52.74-14.56-7.69-5.2-15.52-9.39-23.87-13.35-25.39-12.02-51.79-13.79-74,5.11-6.27,5.33-12.42,10.19-19.36,14.63-16.88,10.08-32.34,10.72-48.38-.86l43.81-26.8c9.93-8.76,20.98-15.57,33.73-19.35,18.94-5.61,38.8-4.9,57.54,1.25,9.61,3.15,18.19,7.43,27.33,11.69l29.07,13.52c7.2,3.35,14.61,5.4,22.36,7.06,11.1,2.38,24.89-2.97,33.81-9.46l17.57-12.79c11.16-8.13,24.56-19.2,34.21-5.53Z"/>
    <path class="cls-3" d="M664.12,872.1c-8.89-3.66-16.08-8.71-23.25-14.61-24.56-20.18-49.39-23.18-77.89-8.53l-21.51,12.49-19.67,11.16c-1.15.48-2.99,1.27-5.25,2.28-13.03,5.82-15.12,8.02-18.39,7.8-2.84-.19-8-2.27-13.67-16.2,8.97-5.1,22.5-12.86,38.9-22.53,37.59-22.18,37.22-23.15,43.66-24.76,31.64-7.92,67.57,8.7,82.2,18.11,3.26,2.1,11.28,7.58,23.46,12.24,9.86,3.77,18.43,5.47,24.06,6.31,2.74.57,7.42,1.39,12.94.13,4.59-1.05,9.07-2.94,12.27-4.94l17.03-10.63c8.13-4.45,16.26-8.89,24.39-13.34,1.31-.59,3.35-1.67,5.35-3.57,2.48-2.36,2.74-3.92,4.1-4.46,1.65-.65,4.78.24,11.37,8.17-16.08,23.33-39.24,41.06-66.58,48.08-17.8,4.58-36.32,3.87-53.53-3.2Z"/>
    <path class="cls-3" d="M238.74,1298.83l11.77,16.12c2.22,3.04,3.53,6.55,4.34,10.23,1.17,5.29-1.49,10.45-6.2,12.74-26.31-14.11-58.24-49.78-49.76-80.42l28.27-102.15c1.8-6.52,2.45-12.5,1.77-19.25-.86-8.53-2.59-16.6-5.16-24.81l-10.87-29.02c-1.06-2.27-10.31-22.12-13.85-32.15-.66-1.86-1.96-5.75-.17-7.72.71-.78,1.63-.97,3.3-1.32,2.42-.5,5.54-1.14,7.97.41.95.6,1.44,1.32,3.86,6.74,1.06,2.38,1.93,4.4,2.56,5.88,1.11,2.18,2.76,5.43,4.75,9.36,8.83,17.47,13.25,26.21,15.22,30.54,5.93,13.01,12.18,26.74,13.91,45.34,1.01,10.87.14,19.68-.26,23.04-.93,7.94-2.61,14.66-4.23,19.85l-14.92,37.66-11.18,29.64c-2.02,5.36-2.39,10.67-.91,16.29,1.5,5.7,3.74,11.06,7.24,15.84l12.54,17.15Z"/>
    <path class="cls-3" d="M354.35,1318.61c1.21,1.3,2.42,2.6,3.63,3.9-3.03,4.92-6.06,9.85-9.1,14.77-28.17-15.35-47.82-40.16-48.13-73.28-.24-25.89,8.35-48.96,17.82-72.6l8.82-22.01c3.58-8.93,7.44-24.96,4.38-33.3l-12.14-33.12-14.43-34.97-8.71-16.69c2.47-5.33,8-8.83,13.94-8.54,6.7,10.58,13.42,21.7,20.07,33.37,4.12,7.23,8.05,14.36,11.79,21.39l9.77,20.18c3.16,6.53,4.32,13.45,5.23,20.68,1.1,8.71.74,17.09-1.82,25.48-2.08,6.81-4.39,13.2-7.67,19.53l-12.56,24.2c-4.94,9.52-9.47,18.69-12.14,29.09-4.67,18.23-2.19,36.91,7.54,53.01,4.37,7.22,9.52,13.45,15.22,19.67l8.48,9.25Z"/>
    <path class="cls-3" d="M450.51,1336.54c-1.81-.58-4.14-1.52-6.63-3.07-2.48-1.54-4.35-3.2-5.68-4.56-7.5-4.9-23.87-17.14-32.6-39.23-10.1-25.53-4.15-48.89-1.38-58.42,2.21-7.59,5.17-14.38,8.37-21.6,21.89-49.28,22.76-100.93-9.62-145.57-2.56-3.78-5.13-7.55-7.69-11.33,1.59-1.43,3.17-2.86,4.76-4.29l10.91-9.72c13.77,16.24,24.11,35.09,29.53,55.81,8.13,31.09,7.18,67.75-6.38,97.13l-10.02,21.72c-7.12,15.42-7.38,29.67-1.54,45.64,2.94,8.03,6.44,15.44,10.59,22.93,5.03,9.48,10.06,18.96,15.08,28.44,10.49,11.29,11.52,15.87,10.3,17.92-.39.65-.99,1.01-4.38,4.44-1.57,1.59-2.83,2.91-3.62,3.76Z"/>
  </g>
  <text class="cls-1" transform="translate(165.29 1741.57)"><tspan class="cls-17" x="0" y="0">A</tspan><tspan class="cls-9" x="209.38" y="0">UL</tspan><tspan class="cls-16" x="679.35" y="0">A</tspan></text>
  <text class="cls-1" transform="translate(161.27 2069.14)"><tspan class="cls-12" x="0" y="0">G</tspan><tspan class="cls-13" x="249.6" y="0">A</tspan><tspan class="cls-9" x="470.33" y="0">ST</tspan><tspan class="cls-14" x="848.5" y="0">R</tspan><tspan class="cls-11" x="1068.54" y="0">O</tspan><tspan class="cls-7" x="1319.52" y="0">N</tspan><tspan class="cls-9" x="1583.9" y="0">ÒM</tspan><tspan class="cls-8" x="2164.24" y="0">I</tspan><tspan class="cls-10" x="2289.04" y="0">C</tspan><tspan class="cls-15" x="2513.2" y="0">A</tspan></text>
  <text class="cls-2" transform="translate(1129.68 1728.51)"><tspan class="cls-5" x="0" y="0">QUIM </tspan><tspan class="cls-4" x="420.84" y="0">CA</tspan><tspan class="cls-6" x="616.34" y="0">SELL</tspan><tspan class="cls-4" x="963.59" y="0">A</tspan><tspan class="cls-6" x="1060.97" y="0">S</tspan></text>
</svg>