<?xml version="1.0" encoding="UTF-8"?>
<svg id="Capa_1" data-name="Capa 1" xmlns="http://www.w3.org/2000/svg" viewBox="0 0 3000 3000">
  <defs>
    <style>
      .cls-1 {
        fill: #fdf9f9;
      }
    </style>
  </defs>
  <path class="cls-1" d="M2711.75,2494.77c-80.44,181.97-256.86,291.04-452.71,305.3-49.24,3.59-96.48,2.87-144.63-6.31-125.8-23.99-211.86-100.28-272.25-210.77-149.16-272.89-203.69-573.1-178.67-882.95l117.94-9.93c156.86-7.49,313.47,7.93,465.04,49.52,108.59,29.79,211.32,74.3,307.99,131.03,72.74,42.69,130.16,103.27,164.99,180.61,62.53,138.85,53.4,305.29-7.7,443.5ZM1985.01,2056.1c63.42-16.11,158.89-31.52,272.36-16.54,216.32,28.56,358.62,149.17,412.64,200.37,1.74,3.09,2.75,2.63,2.97-.48-7.88-84.82-45.07-154.19-103.07-214.37-89.31-92.68-220.09-152.1-342.79-188.75-149.17-43.65-311.02-62.45-466.33-50.97-20.24,212.28,12.63,461.21,110.61,651.81,61.1,118.87,152.82,222.23,283.87,265.47l-68.91-118.55c-85.6-167.04-124.58-339.12-101.35-528ZM2514.6,2602.26c25.02-17.24,43.49-37.67,59.42-62.37,34.78-53.92,63.7-132.65,44.18-193.96-28.75-90.31-103.54-152.63-189.2-189.33-115.41-47.89-240.42-57.53-365.7-51.43.78,129.5,19.96,263.93,72.68,382.19,17.96,38.58,39.47,73.83,68.85,104.58,46.21,48.37,101.05,68.13,168.27,62.03,51.19-4.65,98.73-22.25,141.5-51.72Z"/>
  <path class="cls-1" d="M1151.79,1342.68c-174.55-10.56-343.86-53.65-502.32-124.35-150.18-68.36-315.43-178.29-385.04-331.84-35.4-78.09-42.51-165.45-15.35-247.58,75.21-227.47,260.72-342.26,305.75-365.08,64.01-32.43,162.76-82.51,285.37-60.31,147.97,26.8,241.53,142.71,275,184.17,28.14,34.87,43.86,62.94,68.89,107.64,14.17,25.3,77.33,140.07,121.91,294.39,63.87,221.09,62.92,430.91,58.12,535.87-70.47,9.82-139.98,11.45-212.32,7.08ZM1272.06,1027.95c1.44-53.74-4.08-103.59-13.5-155.33-24.94-124.28-69.23-243.18-133.78-352.15-18.31-30.91-37.84-59.18-61.74-85.54-62.4-68.84-144.55-103.93-237.69-105.41-111.45-.18-215.94,43.78-300.41,117.64,172.07,153.4,339.08,310.88,501.72,474.51l222.07,223.42c15.55-38.31,21.21-76.35,23.32-117.14ZM1116.98,1239.34l62.57-19.78-160.89-152.27-310.99-299.41-124.18-126.8-137.94-150.2c-89.68,71.91-132.02,186.55-109.92,300.39,12.36,63.66,43.11,119.72,86.48,167.9,91.56,101.71,203.71,181.58,329.76,235.52,113.15,48.42,244.2,72.11,365.11,44.66Z"/>
  <path class="cls-1" d="M2509.71,1356.76c-52.12,12.12-102.82,12.96-154.05,2.39-46.15-9.51-87.07-29.89-123.32-59.47-31.67-25.85-64.62-47.1-101.4-64.35-72.41-33.95-152.39-36.31-226.14-5.39-29.24,12.26-56.2,26.06-83.01,43.22l-79.28,50.74c-21.12,13.52-42.73,23.96-66.4,31.81-49.74,16.51-91.02-4.43-123.54-45.12l186.73-110.29c36.73-31.14,76.56-55.67,122.66-69.91,98.93-30.55,198.13-18.35,293.23,20.12l125.13,57.53c39.61,18.21,77.75,35.58,119.29,48.48l49.94,12.13c38.84,9.43,104.47-19.6,137.97-42.3l78.65-53.29,52.67-35.8c12.84-6.28,59.42-4.56,74.83,7.11-18.63,40.22-44.7,73.83-76.96,103.89-58.11,54.17-128.63,90.24-207.02,108.47Z"/>
  <path class="cls-1" d="M2793.3,320.67c-66.01,120.17-201.35,197.05-337.04,205.56-79.68,5-154.21-16.54-219.25-60.52-31.97-21.62-64.51-39.04-99.23-55.48-105.53-49.96-215.28-57.34-307.61,21.23-26.06,22.17-51.65,42.35-80.47,60.82-70.15,41.9-134.43,44.55-201.1-3.59l182.13-111.4c41.28-36.41,87.22-64.73,140.23-80.43,78.75-23.34,161.31-20.36,239.17,5.19,39.94,13.11,75.6,30.9,113.6,48.57l120.82,56.2c29.92,13.92,60.75,22.47,92.95,29.36,46.13,9.88,103.48-12.37,140.54-39.34l73.05-53.18c46.4-33.78,102.09-79.82,142.21-22.98Z"/>
  <path class="cls-1" d="M2299.02,922.86c-36.97-15.2-66.83-36.2-96.66-60.71-102.11-83.89-205.31-96.36-323.77-35.47l-89.43,51.9-81.75,46.37c-4.76,2.01-12.45,5.29-21.83,9.48-54.15,24.21-62.85,33.33-76.46,32.44-11.79-.77-33.24-9.46-56.81-67.35,37.28-21.19,93.54-53.44,161.72-93.66,156.25-92.18,154.73-96.22,181.5-102.92,131.53-32.94,280.9,36.17,341.68,75.28,13.55,8.72,46.89,31.52,97.53,50.89,40.99,15.68,76.63,22.72,100.03,26.22,11.4,2.36,30.83,5.79,53.8.55,19.08-4.36,37.69-12.23,51.02-20.55l70.79-44.2c33.79-18.48,67.58-36.96,101.37-55.44,5.45-2.45,13.92-6.93,22.24-14.83,10.32-9.8,11.39-16.29,17.05-18.53,6.84-2.71,19.87,1,47.27,33.97-66.84,96.99-163.1,170.67-276.75,199.88-74.01,19.02-150.99,16.1-222.53-13.31Z"/>
  <path class="cls-1" d="M530.79,2696.72l48.92,67c9.21,12.62,14.67,27.23,18.04,42.51,4.85,21.97-6.18,43.46-25.77,52.98-109.37-58.66-242.11-206.94-206.86-334.29l117.53-424.65c7.5-27.1,10.2-51.97,7.37-80.03-3.58-35.44-10.76-69.01-21.46-103.14l-45.18-120.61c-4.41-9.45-42.84-91.96-57.58-133.66-2.73-7.72-8.13-23.9-.72-32.1,2.93-3.25,6.78-4.04,13.7-5.47,10.05-2.08,23.01-4.75,33.13,1.71,3.94,2.51,5.98,5.48,16.05,28.01,4.42,9.89,8.03,18.27,10.65,24.46,4.62,9.07,11.49,22.56,19.76,38.93,36.72,72.63,55.08,108.95,63.28,126.95,24.63,54.09,50.62,111.14,57.82,188.46,4.21,45.18.57,81.82-1.07,95.78-3.88,33.02-10.83,60.93-17.59,82.53l-62.02,156.57-46.48,123.21c-8.41,22.3-9.92,44.37-3.79,67.71,6.24,23.71,15.55,45.96,30.1,65.86l52.13,71.3Z"/>
  <path class="cls-1" d="M1011.38,2778.97c5.03,5.4,10.05,10.8,15.08,16.21-12.6,20.46-25.21,40.93-37.81,61.39-117.08-63.81-198.8-166.93-200.07-304.63-1-107.62,34.7-203.53,74.1-301.78l36.68-91.49c14.89-37.14,30.92-103.77,18.21-138.43l-50.48-137.68-59.96-145.37-36.2-69.36c10.29-22.17,33.24-36.7,57.95-35.49,27.86,43.96,55.77,90.19,83.44,138.7,17.14,30.05,33.46,59.71,49.01,88.93l40.6,83.88c13.15,27.16,17.95,55.89,21.76,85.97,4.58,36.2,3.07,71.03-7.57,105.9-8.63,28.29-18.24,54.89-31.89,81.19l-52.21,100.6c-20.53,39.55-39.39,77.71-50.46,120.94-19.41,75.77-9.11,153.42,31.33,220.34,18.15,30.03,39.57,55.93,63.26,81.75l35.26,38.44Z"/>
  <path class="cls-1" d="M1411.11,2853.48c-7.53-2.43-17.2-6.34-27.54-12.75-10.32-6.4-18.1-13.31-23.62-18.97-31.17-20.35-99.21-71.26-135.53-163.07-41.99-106.13-17.26-203.22-5.72-242.83,9.19-31.55,21.49-59.79,34.81-89.78,90.99-204.85,94.62-419.55-39.98-605.11-10.66-15.69-21.32-31.39-31.97-47.08,6.6-5.94,13.19-11.88,19.79-17.83l45.35-40.4c57.25,67.51,100.24,145.88,122.75,231.99,33.79,129.26,29.83,281.64-26.51,403.75l-41.65,90.27c-29.58,64.1-30.68,123.32-6.41,189.73,12.2,33.4,26.75,64.2,44.03,95.32,20.9,39.4,41.8,78.8,62.7,118.2,43.59,46.91,47.89,65.97,42.81,74.48-1.62,2.71-4.1,4.19-18.22,18.46-6.53,6.6-11.75,12.08-15.06,15.61Z"/>
</svg>