<?xml version="1.0" encoding="UTF-8"?>
<svg id="Capa_1" data-name="Capa 1" xmlns="http://www.w3.org/2000/svg" viewBox="0 950 3000 1200">
  <defs>
    <style>
      .cls-1 {
        font-family: RalewayRoman-Medium, Raleway;
        font-size: 149.43px;
        font-variation-settings: 'wght' 500;
        font-weight: 500;
      }

      .cls-1, .cls-2, .cls-3, .cls-4 {
        fill: #fdf9f9;
      }

      .cls-5 {
        letter-spacing: -.02em;
      }

      .cls-3 {
        font-size: 366.54px;
      }

      .cls-3, .cls-4 {
        font-family: SenlotSerif-NorLig, 'Senlot Serif';
      }

      .cls-4 {
        font-size: 359.43px;
      }

      .cls-6 {
        letter-spacing: 0em;
      }

      .cls-7 {
        letter-spacing: 0em;
      }

      .cls-8 {
        letter-spacing: .06em;
      }

      .cls-9 {
        letter-spacing: .06em;
      }

      .cls-10 {
        letter-spacing: .07em;
      }

      .cls-11 {
        letter-spacing: .07em;
      }

      .cls-12 {
        letter-spacing: .07em;
      }

      .cls-13 {
        letter-spacing: .06em;
      }

      .cls-14 {
        letter-spacing: .06em;
      }

      .cls-15 {
        letter-spacing: .06em;
      }

      .cls-16 {
        letter-spacing: .05em;
      }

      .cls-17 {
        letter-spacing: .04em;
      }

      .cls-18 {
        letter-spacing: .04em;
      }

      .cls-19 {
        letter-spacing: .03em;
      }
    </style>
  </defs>
  <g>
    <path class="cls-2" d="M833.59,1386.45c-7.45,16.85-23.79,26.95-41.93,28.28-4.56.33-8.94.27-13.39-.58-11.65-2.22-19.62-9.29-25.21-19.52-13.81-25.27-18.86-53.08-16.55-81.78l10.92-.92c14.53-.69,29.03.73,43.07,4.59,10.06,2.76,19.57,6.88,28.52,12.14,6.74,3.95,12.06,9.56,15.28,16.73,5.79,12.86,4.95,28.28-.71,41.08ZM766.28,1345.82c5.87-1.49,14.72-2.92,25.22-1.53,20.03,2.64,33.21,13.82,38.22,18.56.16.29.25.24.28-.04-.73-7.86-4.17-14.28-9.55-19.85-8.27-8.58-20.38-14.09-31.75-17.48-13.82-4.04-28.81-5.78-43.19-4.72-1.87,19.66,1.17,42.72,10.24,60.37,5.66,11.01,14.15,20.58,26.29,24.59l-6.38-10.98c-7.93-15.47-11.54-31.41-9.39-48.9ZM815.33,1396.4c2.32-1.6,4.03-3.49,5.5-5.78,3.22-4.99,5.9-12.29,4.09-17.96-2.66-8.36-9.59-14.14-17.52-17.53-10.69-4.44-22.27-5.33-33.87-4.76.07,11.99,1.85,24.44,6.73,35.4,1.66,3.57,3.66,6.84,6.38,9.69,4.28,4.48,9.36,6.31,15.58,5.75,4.74-.43,9.14-2.06,13.11-4.79Z"/>
    <path class="cls-2" d="M689.11,1279.75c-16.17-.98-31.85-4.97-46.52-11.52-13.91-6.33-29.21-16.51-35.66-30.73-3.28-7.23-3.94-15.32-1.42-22.93,6.97-21.07,24.15-31.7,28.32-33.81,5.93-3,15.07-7.64,26.43-5.59,13.7,2.48,22.37,13.22,25.47,17.06,2.61,3.23,4.06,5.83,6.38,9.97,1.31,2.34,7.16,12.97,11.29,27.27,5.92,20.48,5.83,39.91,5.38,49.63-6.53.91-12.96,1.06-19.66.66ZM700.25,1250.6c.13-4.98-.38-9.59-1.25-14.39-2.31-11.51-6.41-22.52-12.39-32.61-1.7-2.86-3.5-5.48-5.72-7.92-5.78-6.38-13.39-9.63-22.01-9.76-10.32-.02-20,4.05-27.82,10.9,15.94,14.21,31.4,28.79,46.47,43.95l20.57,20.69c1.44-3.55,1.96-7.07,2.16-10.85ZM685.89,1270.18l5.79-1.83-14.9-14.1-28.8-27.73-11.5-11.74-12.78-13.91c-8.31,6.66-12.23,17.28-10.18,27.82,1.14,5.9,3.99,11.09,8.01,15.55,8.48,9.42,18.87,16.82,30.54,21.81,10.48,4.48,22.62,6.68,33.81,4.14Z"/>
    <path class="cls-2" d="M814.88,1281.05c-4.83,1.12-9.52,1.2-14.27.22-4.27-.88-8.06-2.77-11.42-5.51-2.93-2.39-5.98-4.36-9.39-5.96-6.71-3.14-14.11-3.36-20.94-.5-2.71,1.14-5.21,2.41-7.69,4l-7.34,4.7c-1.96,1.25-3.96,2.22-6.15,2.95-4.61,1.53-8.43-.41-11.44-4.18l17.29-10.21c3.4-2.88,7.09-5.16,11.36-6.47,9.16-2.83,18.35-1.7,27.16,1.86l11.59,5.33c3.67,1.69,7.2,3.3,11.05,4.49l4.63,1.12c3.6.87,9.68-1.82,12.78-3.92l7.28-4.94,4.88-3.32c1.19-.58,5.5-.42,6.93.66-1.73,3.73-4.14,6.84-7.13,9.62-5.38,5.02-11.91,8.36-19.17,10.05Z"/>
    <path class="cls-2" d="M841.14,1185.09c-6.11,11.13-18.65,18.25-31.22,19.04-7.38.46-14.28-1.53-20.31-5.61-2.96-2-5.97-3.62-9.19-5.14-9.77-4.63-19.94-5.31-28.49,1.97-2.41,2.05-4.78,3.92-7.45,5.63-6.5,3.88-12.45,4.13-18.63-.33l16.87-10.32c3.82-3.37,8.08-5.99,12.99-7.45,7.29-2.16,14.94-1.89,22.15.48,3.7,1.21,7,2.86,10.52,4.5l11.19,5.2c2.77,1.29,5.63,2.08,8.61,2.72,4.27.91,9.58-1.15,13.02-3.64l6.77-4.92c4.3-3.13,9.46-7.39,13.17-2.13Z"/>
    <path class="cls-2" d="M795.36,1240.86c-3.42-1.41-6.19-3.35-8.95-5.62-9.46-7.77-19.01-8.92-29.99-3.29l-8.28,4.81-7.57,4.29c-.44.19-1.15.49-2.02.88-5.02,2.24-5.82,3.09-7.08,3-1.09-.07-3.08-.88-5.26-6.24,3.45-1.96,8.66-4.95,14.98-8.67,14.47-8.54,14.33-8.91,16.81-9.53,12.18-3.05,26.02,3.35,31.64,6.97,1.26.81,4.34,2.92,9.03,4.71,3.8,1.45,7.1,2.1,9.26,2.43,1.06.22,2.86.54,4.98.05,1.77-.4,3.49-1.13,4.73-1.9l6.56-4.09c3.13-1.71,6.26-3.42,9.39-5.14.5-.23,1.29-.64,2.06-1.37.96-.91,1.05-1.51,1.58-1.72.63-.25,1.84.09,4.38,3.15-6.19,8.98-15.11,15.81-25.63,18.51-6.85,1.76-13.98,1.49-20.61-1.23Z"/>
    <path class="cls-2" d="M631.6,1405.15l4.53,6.21c.85,1.17,1.36,2.52,1.67,3.94.45,2.04-.57,4.02-2.39,4.91-10.13-5.43-22.42-19.17-19.16-30.96l10.89-39.33c.69-2.51.94-4.81.68-7.41-.33-3.28-1-6.39-1.99-9.55l-4.18-11.17c-.41-.88-3.97-8.52-5.33-12.38-.25-.72-.75-2.21-.07-2.97.27-.3.63-.37,1.27-.51.93-.19,2.13-.44,3.07.16.36.23.55.51,1.49,2.59.41.92.74,1.69.99,2.27.43.84,1.06,2.09,1.83,3.61,3.4,6.73,5.1,10.09,5.86,11.76,2.28,5.01,4.69,10.29,5.36,17.45.39,4.18.05,7.58-.1,8.87-.36,3.06-1,5.64-1.63,7.64l-5.74,14.5-4.31,11.41c-.78,2.07-.92,4.11-.35,6.27.58,2.2,1.44,4.26,2.79,6.1l4.83,6.6Z"/>
    <path class="cls-2" d="M676.11,1412.77c.47.5.93,1,1.4,1.5-1.17,1.9-2.33,3.79-3.5,5.69-10.84-5.91-18.41-15.46-18.53-28.21-.09-9.97,3.21-18.85,6.86-27.95l3.4-8.47c1.38-3.44,2.86-9.61,1.69-12.82l-4.68-12.75-5.55-13.46-3.35-6.42c.95-2.05,3.08-3.4,5.37-3.29,2.58,4.07,5.17,8.35,7.73,12.85,1.59,2.78,3.1,5.53,4.54,8.24l3.76,7.77c1.22,2.52,1.66,5.18,2.01,7.96.42,3.35.28,6.58-.7,9.81-.8,2.62-1.69,5.08-2.95,7.52l-4.84,9.32c-1.9,3.66-3.65,7.2-4.67,11.2-1.8,7.02-.84,14.21,2.9,20.41,1.68,2.78,3.66,5.18,5.86,7.57l3.27,3.56Z"/>
    <path class="cls-2" d="M713.13,1419.67c-.7-.23-1.59-.59-2.55-1.18-.96-.59-1.68-1.23-2.19-1.76-2.89-1.88-9.19-6.6-12.55-15.1-3.89-9.83-1.6-18.82-.53-22.49.85-2.92,1.99-5.54,3.22-8.31,8.43-18.97,8.76-38.86-3.7-56.04-.99-1.45-1.97-2.91-2.96-4.36.61-.55,1.22-1.1,1.83-1.65l4.2-3.74c5.3,6.25,9.28,13.51,11.37,21.49,3.13,11.97,2.76,26.08-2.46,37.39l-3.86,8.36c-2.74,5.94-2.84,11.42-.59,17.57,1.13,3.09,2.48,5.95,4.08,8.83,1.94,3.65,3.87,7.3,5.81,10.95,4.04,4.35,4.44,6.11,3.96,6.9-.15.25-.38.39-1.69,1.71-.61.61-1.09,1.12-1.4,1.45Z"/>
  </g>
  <text class="cls-3" transform="translate(996.29 1424.12)"><tspan class="cls-19" x="0" y="0">A</tspan><tspan class="cls-10" x="223.22" y="0">UL</tspan><tspan class="cls-18" x="724.27" y="0">A</tspan></text>
  <text class="cls-4" transform="translate(87.59 1770.09)"><tspan class="cls-14" x="0" y="0">G</tspan><tspan class="cls-15" x="260.95" y="0">A</tspan><tspan class="cls-11" x="491.7" y="0">ST</tspan><tspan class="cls-16" x="887.07" y="0">R</tspan><tspan class="cls-13" x="1117.11" y="0">O</tspan><tspan class="cls-9" x="1379.49" y="0">N</tspan><tspan class="cls-11" x="1655.9" y="0">ÒM</tspan><tspan class="cls-8" x="2262.62" y="0">I</tspan><tspan class="cls-12" x="2393.09" y="0">C</tspan><tspan class="cls-17" x="2627.44" y="0">A</tspan></text>
  <text class="cls-1" transform="translate(927 2032.97)"><tspan class="cls-7" x="0" y="0">QUIM </tspan><tspan class="cls-5" x="425.57" y="0">CA</tspan><tspan class="cls-6" x="623.27" y="0">SELL</tspan><tspan class="cls-5" x="974.43" y="0">A</tspan><tspan class="cls-7" x="1072.9" y="0">S</tspan></text>
  <g>
    <path class="cls-2" d="M2322.93,1383.55c-7.45,16.85-23.79,26.95-41.93,28.28-4.56.33-8.94.27-13.39-.58-11.65-2.22-19.62-9.29-25.21-19.52-13.81-25.27-18.86-53.08-16.55-81.78l10.92-.92c14.53-.69,29.03.73,43.07,4.59,10.06,2.76,19.57,6.88,28.52,12.14,6.74,3.95,12.06,9.56,15.28,16.73,5.79,12.86,4.95,28.28-.71,41.08ZM2255.62,1342.92c5.87-1.49,14.72-2.92,25.22-1.53,20.03,2.64,33.21,13.82,38.22,18.56.16.29.25.24.28-.04-.73-7.86-4.17-14.28-9.55-19.85-8.27-8.58-20.38-14.09-31.75-17.48-13.82-4.04-28.81-5.78-43.19-4.72-1.87,19.66,1.17,42.72,10.24,60.37,5.66,11.01,14.15,20.58,26.29,24.59l-6.38-10.98c-7.93-15.47-11.54-31.41-9.39-48.9ZM2304.67,1393.5c2.32-1.6,4.03-3.49,5.5-5.78,3.22-4.99,5.9-12.29,4.09-17.96-2.66-8.36-9.59-14.14-17.52-17.53-10.69-4.44-22.27-5.33-33.87-4.76.07,11.99,1.85,24.44,6.73,35.4,1.66,3.57,3.66,6.84,6.38,9.69,4.28,4.48,9.36,6.31,15.58,5.75,4.74-.43,9.14-2.06,13.11-4.79Z"/>
    <path class="cls-2" d="M2178.45,1276.85c-16.17-.98-31.85-4.97-46.52-11.52-13.91-6.33-29.21-16.51-35.66-30.73-3.28-7.23-3.94-15.32-1.42-22.93,6.97-21.07,24.15-31.7,28.32-33.81,5.93-3,15.07-7.64,26.43-5.59,13.7,2.48,22.37,13.22,25.47,17.06,2.61,3.23,4.06,5.83,6.38,9.97,1.31,2.34,7.16,12.97,11.29,27.27,5.92,20.48,5.83,39.91,5.38,49.63-6.53.91-12.96,1.06-19.66.66ZM2189.59,1247.7c.13-4.98-.38-9.59-1.25-14.39-2.31-11.51-6.41-22.52-12.39-32.61-1.7-2.86-3.5-5.48-5.72-7.92-5.78-6.38-13.39-9.63-22.01-9.76-10.32-.02-20,4.05-27.82,10.9,15.94,14.21,31.4,28.79,46.47,43.95l20.57,20.69c1.44-3.55,1.96-7.07,2.16-10.85ZM2175.22,1267.28l5.79-1.83-14.9-14.1-28.8-27.73-11.5-11.74-12.78-13.91c-8.31,6.66-12.23,17.28-10.18,27.82,1.14,5.9,3.99,11.09,8.01,15.55,8.48,9.42,18.87,16.82,30.54,21.81,10.48,4.48,22.62,6.68,33.81,4.14Z"/>
    <path class="cls-2" d="M2304.21,1278.15c-4.83,1.12-9.52,1.2-14.27.22-4.27-.88-8.06-2.77-11.42-5.51-2.93-2.39-5.98-4.36-9.39-5.96-6.71-3.14-14.11-3.36-20.94-.5-2.71,1.14-5.21,2.41-7.69,4l-7.34,4.7c-1.96,1.25-3.96,2.22-6.15,2.95-4.61,1.53-8.43-.41-11.44-4.18l17.29-10.21c3.4-2.88,7.09-5.16,11.36-6.47,9.16-2.83,18.35-1.7,27.16,1.86l11.59,5.33c3.67,1.69,7.2,3.3,11.05,4.49l4.63,1.12c3.6.87,9.68-1.82,12.78-3.92l7.28-4.94,4.88-3.32c1.19-.58,5.5-.42,6.93.66-1.73,3.73-4.14,6.84-7.13,9.62-5.38,5.02-11.91,8.36-19.17,10.05Z"/>
    <path class="cls-2" d="M2330.48,1182.19c-6.11,11.13-18.65,18.25-31.22,19.04-7.38.46-14.28-1.53-20.31-5.61-2.96-2-5.97-3.62-9.19-5.14-9.77-4.63-19.94-5.31-28.49,1.97-2.41,2.05-4.78,3.92-7.45,5.63-6.5,3.88-12.45,4.13-18.63-.33l16.87-10.32c3.82-3.37,8.08-5.99,12.99-7.45,7.29-2.16,14.94-1.89,22.15.48,3.7,1.21,7,2.86,10.52,4.5l11.19,5.2c2.77,1.29,5.63,2.08,8.61,2.72,4.27.91,9.58-1.15,13.02-3.64l6.77-4.92c4.3-3.13,9.46-7.39,13.17-2.13Z"/>
    <path class="cls-2" d="M2284.7,1237.96c-3.42-1.41-6.19-3.35-8.95-5.62-9.46-7.77-19.01-8.92-29.99-3.29l-8.28,4.81-7.57,4.29c-.44.19-1.15.49-2.02.88-5.02,2.24-5.82,3.09-7.08,3-1.09-.07-3.08-.88-5.26-6.24,3.45-1.96,8.66-4.95,14.98-8.67,14.47-8.54,14.33-8.91,16.81-9.53,12.18-3.05,26.02,3.35,31.64,6.97,1.26.81,4.34,2.92,9.03,4.71,3.8,1.45,7.1,2.1,9.26,2.43,1.06.22,2.86.54,4.98.05,1.77-.4,3.49-1.13,4.73-1.9l6.56-4.09c3.13-1.71,6.26-3.42,9.39-5.14.5-.23,1.29-.64,2.06-1.37.96-.91,1.05-1.51,1.58-1.72.63-.25,1.84.09,4.38,3.15-6.19,8.98-15.11,15.81-25.63,18.51-6.85,1.76-13.98,1.49-20.61-1.23Z"/>
    <path class="cls-2" d="M2120.93,1402.25l4.53,6.21c.85,1.17,1.36,2.52,1.67,3.94.45,2.04-.57,4.02-2.39,4.91-10.13-5.43-22.42-19.17-19.16-30.96l10.89-39.33c.69-2.51.94-4.81.68-7.41-.33-3.28-1-6.39-1.99-9.55l-4.18-11.17c-.41-.88-3.97-8.52-5.33-12.38-.25-.72-.75-2.21-.07-2.97.27-.3.63-.37,1.27-.51.93-.19,2.13-.44,3.07.16.36.23.55.51,1.49,2.59.41.92.74,1.69.99,2.27.43.84,1.06,2.09,1.83,3.61,3.4,6.73,5.1,10.09,5.86,11.76,2.28,5.01,4.69,10.29,5.36,17.45.39,4.18.05,7.58-.1,8.87-.36,3.06-1,5.64-1.63,7.64l-5.74,14.5-4.31,11.41c-.78,2.07-.92,4.11-.35,6.27.58,2.2,1.44,4.26,2.79,6.1l4.83,6.6Z"/>
    <path class="cls-2" d="M2165.44,1409.87c.47.5.93,1,1.4,1.5-1.17,1.9-2.33,3.79-3.5,5.69-10.84-5.91-18.41-15.46-18.53-28.21-.09-9.97,3.21-18.85,6.86-27.95l3.4-8.47c1.38-3.44,2.86-9.61,1.69-12.82l-4.68-12.75-5.55-13.46-3.35-6.42c.95-2.05,3.08-3.4,5.37-3.29,2.58,4.07,5.17,8.35,7.73,12.85,1.59,2.78,3.1,5.53,4.54,8.24l3.76,7.77c1.22,2.52,1.66,5.18,2.01,7.96.42,3.35.28,6.58-.7,9.81-.8,2.62-1.69,5.08-2.95,7.52l-4.84,9.32c-1.9,3.66-3.65,7.2-4.67,11.2-1.8,7.02-.84,14.21,2.9,20.41,1.68,2.78,3.66,5.18,5.86,7.57l3.27,3.56Z"/>
    <path class="cls-2" d="M2202.47,1416.77c-.7-.23-1.59-.59-2.55-1.18-.96-.59-1.68-1.23-2.19-1.76-2.89-1.88-9.19-6.6-12.55-15.1-3.89-9.83-1.6-18.82-.53-22.49.85-2.92,1.99-5.54,3.22-8.31,8.43-18.97,8.76-38.86-3.7-56.04-.99-1.45-1.97-2.91-2.96-4.36.61-.55,1.22-1.1,1.83-1.65l4.2-3.74c5.3,6.25,9.28,13.51,11.37,21.49,3.13,11.97,2.76,26.08-2.46,37.39l-3.86,8.36c-2.74,5.94-2.84,11.42-.59,17.57,1.13,3.09,2.48,5.95,4.08,8.83,1.94,3.65,3.87,7.3,5.81,10.95,4.04,4.35,4.44,6.11,3.96,6.9-.15.25-.38.39-1.69,1.71-.61.61-1.09,1.12-1.4,1.45Z"/>
  </g>
</svg>